<svg width="16" height="16" viewBox="0 0 16 16" fill="none" xmlns="http://www.w3.org/2000/svg">
<path d="M0 4C0 1.79086 1.79086 0 4 0H12C14.2091 0 16 1.79086 16 4V12C16 14.2091 14.2091 16 12 16H4C1.79086 16 0 14.2091 0 12V4Z" fill="#F2F2F2"/>
<path d="M0 4C0 1.79086 1.79086 0 4 0H12C14.2091 0 16 1.79086 16 4V12C16 14.2091 14.2091 16 12 16H4C1.79086 16 0 14.2091 0 12V4Z" fill="#616161"/>
<path d="M1 4C1 2.34315 2.34315 1 4 1H12C13.6569 1 15 2.34315 15 4V12C15 13.6569 13.6569 15 12 15H4C2.34315 15 1 13.6569 1 12V4Z" fill="#F2F2F2"/>
</svg>
