<svg width="40" height="40" viewBox="0 0 40 40" fill="none" xmlns="http://www.w3.org/2000/svg">
<path d="M32 0H8C3.58172 0 0 3.58172 0 8V32C0 36.4183 3.58172 40 8 40H32C36.4183 40 40 36.4183 40 32V8C40 3.58172 36.4183 0 32 0Z" fill="#F3F4F5"/>
<path d="M17.2571 16.5378H12V28.5238H15.4286V20.3309L18.8571 28.5238H21.1429L24.5714 20.3309V28.5238H28V16.5378H22.7429L20 23.0998L17.2571 16.5378Z" fill="#B6BCC3"/>
<path d="M20 11C22.8732 11 25.4857 13.0482 25.7143 15.5516H22.7884C22.4544 14.3607 21.6259 13.4275 20 13.4275C18.3741 13.4275 17.5456 14.3607 17.2116 15.5516H14.2078C14.5524 13.0103 17.1268 11 20 11Z" fill="#B6BCC3"/>
</svg>
