<svg width="24" height="23" viewBox="0 0 24 23" fill="none" xmlns="http://www.w3.org/2000/svg">
<path fill-rule="evenodd" clip-rule="evenodd" d="M12 22.7063C12 22.7063 1.43623 19.1855 0.113927 3.33921C0.0605003 2.69141 0.021766 2.02491 0.000395375 1.33571C-0.00390996 1.16094 0.0269836 0.987083 0.0912378 0.824492C0.155492 0.661901 0.251794 0.513895 0.374414 0.389281C0.497035 0.264667 0.643468 0.16599 0.805001 0.0991224C0.966535 0.0322542 1.13987 -0.00143893 1.31469 4.70981e-05H22.6853C22.8601 -0.00143893 23.0335 0.0322542 23.195 0.0991224C23.3565 0.16599 23.503 0.264667 23.6256 0.389281C23.7482 0.513895 23.8445 0.661901 23.9088 0.824492C23.973 0.987083 24.0039 1.16094 23.9996 1.33571C23.9782 2.02491 23.9395 2.69141 23.8861 3.33921C22.5651 19.1855 12 22.7063 12 22.7063ZM3.46644 3.33921H12V19.0172C10.6791 18.2475 9.48811 17.2738 8.47117 16.1322C6.37819 13.8055 4.06482 9.86526 3.46644 3.33921Z" fill="black"/>
</svg>
